<svg xmlns="http://www.w3.org/2000/svg" viewBox="0 0 400 550"><defs><linearGradient id="sky" x2="0" y2="1"><stop stop-color="#94c9d5"/><stop offset="1" stop-color="#eef0d8"/></linearGradient></defs><path fill="url(#sky)" d="M0 0h400v550H0z"/><circle cx="315" cy="75" r="35" fill="#fff0bd"/><path d="M0 190Q100 130 190 200T400 170V550H0" fill="#269da5"/><path d="M0 300Q100 270 200 310T400 290M0 390Q100 360 200 400T400 380" fill="none" stroke="#b9ece3" stroke-width="4"/><ellipse cx="210" cy="330" rx="40" ry="135" fill="#f2b14f" transform="rotate(30 210 330)"/><circle cx="215" cy="294" r="21" fill="#eec6a6"/><path d="m206 318-18 44" stroke="#284e59" stroke-width="38" stroke-linecap="round"/><path d="m130 290 160 80" stroke="#fff7dc" stroke-width="8"/><path d="m114 282 29 15m132 65 30 15" stroke="#f5ddae" stroke-width="22" stroke-linecap="round"/></svg>