<svg xmlns="http://www.w3.org/2000/svg" viewBox="0 0 120 190"><defs><linearGradient id="shell" x2="1" y2="1"><stop stop-color="#d6c4a2"/><stop offset=".5" stop-color="#ab9471"/><stop offset="1" stop-color="#dfceaf"/></linearGradient></defs><path d="M43 40V8h33v32" fill="none" stroke="#73797b" stroke-width="5"/><path d="M43 9h33" stroke="#252d34" stroke-width="8" stroke-linecap="round"/><rect x="18" y="36" width="86" height="137" rx="16" fill="url(#shell)" stroke="#665a49" stroke-width="2"/><path d="M32 51v105m15-105v105m16-105v105m16-105v105m13-99v94" stroke="#7e6c52" stroke-width="3" opacity=".6"/><path d="M22 57v94M98 57v94" stroke="#f1e3c9" stroke-width="2"/><rect x="47" y="42" width="27" height="7" rx="3" fill="#262b30"/><rect x="100" y="79" width="7" height="24" rx="3" fill="#262b30"/><rect x="27" y="169" width="12" height="13" rx="5" fill="#222c34"/><rect x="82" y="169" width="12" height="13" rx="5" fill="#222c34"/><rect x="51" y="70" width="20" height="9" rx="2" fill="#eee2ca" stroke="#9c896d"/></svg>
